Coordinates
version=1
nRows=17
nColumns=24
inDegrees=yes

Units are S.I. units (second, meters, Newtons, ...)
Angles are in degrees.

endheader
time	pelvis_tilt	pelvis_list	pelvis_rotation	pelvis_tx	pelvis_ty	pelvis_tz	hip_flexion_r	hip_adduction_r	hip_rotation_r	knee_angle_r	ankle_angle_r	subtalar_angle_r	mtp_angle_r	hip_flexion_l	hip_adduction_l	hip_rotation_l	knee_angle_l	ankle_angle_l	subtalar_angle_l	mtp_angle_l	lumbar_extension	lumbar_bending	lumbar_rotation
      0.92466667	     -4.82346342	      3.12959944	     -0.13678293	     -0.07041485	      1.05693850	      0.30781537	     -6.72251208	     -2.19295006	     -4.14292160	    -12.77140740	     19.01821011	      2.38330157	     -0.64906848	     27.57578294	      2.20985596	     -2.53024901	    -12.45795439	      8.64013872	      5.01142996	      5.30175584	     -6.17847405	     -0.62060481	      2.86750142
      0.92883333	     -4.74651235	      3.09228262	     -0.25458500	     -0.06464132	      1.05598318	      0.30752452	     -6.91514814	     -2.22777636	     -4.10746295	    -13.24769527	     19.15050349	      2.56754474	     -0.52774943	     27.50655261	      2.20992117	     -2.43158062	    -12.56625099	      8.60516501	      4.96281512	      5.24872673	     -6.24470651	     -0.61846264	      2.88982095
      0.93300000	     -4.70772331	      3.04639149	     -0.36957398	     -0.05884381	      1.05499467	      0.30723153	     -7.05637945	     -2.24845087	     -3.99534622	    -13.74406278	     19.20401191	      2.61073567	     -0.49666701	     27.48895036	      2.20161847	     -2.32944687	    -12.77649681	      8.55617509	      4.92574256	      5.23852976	     -6.26536643	     -0.59863086	      2.88374739
      0.93716667	     -4.61665322	      3.03686066	     -0.47684035	     -0.05301109	      1.05412531	      0.30687868	     -7.20772506	     -2.33579126	     -4.07336096	    -14.35064143	     19.38092799	      3.03077359	     -0.31094584	     27.38481911	      2.25004040	     -2.14703029	    -12.99268947	      8.42261802	      4.71312167	      5.18817357	     -6.32555091	     -0.64419477	      2.89936130
      0.94133333	     -4.56723676	      3.01039570	     -0.58338100	     -0.04716747	      1.05321698	      0.30654555	     -7.30304573	     -2.39603782	     -4.05357270	    -14.97801704	     19.47733018	      3.28577003	     -0.08056847	     27.33939981	      2.27732342	     -1.97863809	    -13.30391520	      8.27666088	      4.52071636	      5.13732661	     -6.33603279	     -0.66251687	      2.88927430
      0.94550000	     -4.50163981	      2.97975673	     -0.68186603	     -0.04129996	      1.05237771	      0.30623232	     -7.41683312	     -2.44061040	     -3.95918172	    -15.59839105	     19.41329995	      3.30171061	     -0.04465273	     27.29702936	      2.29305111	     -1.88172517	    -13.72398991	      8.14801592	      4.46804800	      5.12957111	     -6.37663239	     -0.68012831	      2.87365968
      0.94966667	     -4.40330675	      2.98062378	     -0.78018266	     -0.03542647	      1.05161195	      0.30583425	     -7.49847680	     -2.55832840	     -4.08682321	    -16.36896532	     19.52576429	      3.77515297	      0.27298957	     27.18944596	      2.36214466	     -1.67801362	    -14.13142823	      7.92607516	      4.17819630	      5.08357155	     -6.43115166	     -0.73652352	      2.84173705
      0.95383333	     -4.33059653	      2.94378654	     -0.87669541	     -0.02955844	      1.05087762	      0.30551091	     -7.56877293	     -2.60171946	     -3.97668774	    -17.08804596	     19.40379288	      3.80045898	      0.32605048	     27.14246918	      2.37354825	     -1.57059230	    -14.65965174	      7.75394323	      4.10453014	      5.07501204	     -6.48286768	     -0.75726074	      2.82032628
      0.95800000	     -4.29077578	      2.92653524	     -0.94869040	     -0.02366312	      1.05010919	      0.30504570	     -7.54510063	     -2.70046321	     -4.06834416	    -17.93502601	     19.27193542	      4.11767584	      4.71041804	     27.09950329	      2.44215343	     -1.29216810	    -15.15848952	      7.47709832	      3.69205547	      4.65008963	     -6.45400608	     -0.78456598	      2.75077639
      0.96216667	     -4.20025715	      2.91162387	     -1.04128303	     -0.01778603	      1.04947137	      0.30467168	     -7.55408286	     -2.79558488	     -4.07793176	    -18.82336287	     19.19719525	      4.39503562	      4.76727773	     27.03232541	      2.47888697	     -1.20074030	    -15.76058817	      7.27282680	      3.57434785	      4.64428173	     -6.52366147	     -0.83453938	      2.70770579
      0.96633333	     -4.12717669	      2.89262723	     -1.10964827	     -0.01189851	      1.04886867	      0.30422884	     -7.51313985	     -2.89378676	     -4.14636072	    -19.77398515	     19.03234816	      4.68567411	      4.88101546	     26.97531822	      2.53087023	     -1.02708570	    -16.37417219	      7.04813136	      3.35523682	      4.63397538	     -6.55559562	     -0.88142809	      2.64650526
      0.97050000	     -4.06240825	      2.88776360	     -1.17451123	     -0.00600011	      1.04829611	      0.30377566	     -7.42911915	     -3.01378143	     -4.22650232	    -20.79204385	     18.83181787	      4.97461333	      5.05899345	     26.92334050	      2.59746228	     -0.86031033	    -17.00434821	      6.81965121	      3.11244852	      4.61888084	     -6.57122784	     -0.94677673	      2.56801277
      0.97466667	     -4.01341208	      2.86197828	     -1.22869741	     -0.00011794	      1.04776565	      0.30329244	     -7.29856598	     -3.11326473	     -4.30119367	    -21.85834112	     18.54959516	      5.23897375	      5.28586662	     26.89445534	      2.64534737	     -0.68606403	    -17.66854705	      6.62027918	      2.88303781	      4.59963229	     -6.57684004	     -0.98620973	      2.48981783
      0.97883333	     -3.94784040	      2.85604262	     -1.27541886	      0.00576214	      1.04731667	      0.30279149	     -7.15197067	     -3.24125695	     -4.39877507	    -22.97904796	     18.13586075	      5.38151165	      9.42728934	     26.83535617	      2.71871723	     -0.50305256	    -18.32206725	      6.42197527	      2.60941436	      4.27506626	     -6.59872098	     -1.05186175	      2.39070920
      0.98300000	     -3.89902724	      2.84319777	     -1.31875294	      0.01163729	      1.04689436	      0.30227828	     -6.94523789	     -3.37199720	     -4.52300994	    -24.18581123	     17.77003469	      5.67330709	      9.50230297	     26.80293524	      2.77614796	     -0.37650469	    -19.00979555	      6.29212618	      2.45193960	      4.26350476	     -6.60547766	     -1.11022165	      2.30795957
      0.98716667	     -3.84577370	      2.82802591	     -1.36018991	      0.01749473	      1.04655156	      0.30176397	     -6.71112888	     -3.50428832	     -4.63755327	    -25.43879202	     17.29345267	      5.94859247	      9.61414881	     26.75353476	      2.83245380	     -0.23604484	    -19.68313214	      6.18728290	      2.26782526	      4.24757123	     -6.61881965	     -1.17788701	      2.21562447
      0.99133333	     -3.81030274	      2.82097104	     -1.39164325	      0.02333884	      1.04622553	      0.30121990	     -6.41488479	     -3.65545229	     -4.78534075	    -26.77047957	     16.79175581	      6.21451034	      9.78148615	     26.71530837	      2.90073761	     -0.09426603	    -20.34818980	      6.11392290	      2.07995435	      4.22453640	     -6.61112363	     -1.24810227	      2.10981838
